SplineFontDB: 3.2
FontName: KreativeSquare2025Modified
FullName: Kreative Square 2025 Modified
FamilyName: Kreative Square 2025 Modified
Weight: Medium
Copyright: Copyright (c) 2017-2025, Kreative Software, under the Open Font License.
Version: 2025.03.20-boxes
DefaultBaseFilename: k-square-boxes
ItalicAngle: 0
UnderlinePosition: -72
UnderlineWidth: 36
Ascent: 560
Descent: 160
InvalidEm: 0
sfntRevision: 0x07e907ae
LayerCount: 2
Layer: 0 1 "Back" 1
Layer: 1 1 "Fore" 0
XUID: [1021 795 -371388666 8811114]
StyleMap: 0x0000
FSType: 0
OS2Version: 4
OS2_WeightWidthSlopeOnly: 0
OS2_UseTypoMetrics: 1
CreationTime: 1504498285
ModificationTime: 1768610946
PfmFamily: 17
TTFWeight: 500
TTFWidth: 5
LineGap: 0
VLineGap: 0
Panose: 2 0 6 9 0 0 0 0 0 0
OS2TypoAscent: 560
OS2TypoAOffset: 0
OS2TypoDescent: -160
OS2TypoDOffset: 0
OS2TypoLinegap: 0
OS2WinAscent: 560
OS2WinAOffset: 0
OS2WinDescent: 160
OS2WinDOffset: 0
HheadAscent: 560
HheadAOffset: 0
HheadDescent: -160
HheadDOffset: 0
OS2SubXSize: 468
OS2SubYSize: 503
OS2SubXOff: 0
OS2SubYOff: 100
OS2SupXSize: 468
OS2SupYSize: 503
OS2SupXOff: 0
OS2SupYOff: 345
OS2StrikeYSize: 35
OS2StrikeYPos: 186
OS2CapHeight: 480
OS2XHeight: 400
OS2Vendor: 'KrKo'
OS2CodePages: e000009b.ddd50000
OS2UnicodeRanges: 800000ff.5200fbfb.14000020.04000000
Lookup: 4 0 1 "'rlig' Required Ligatures lookup 0" { "'rlig' Required Ligatures lookup 0 subtable"  } ['rlig' ('DFLT' <'dflt' > 'cyrl' <'dflt' > 'grek' <'dflt' > 'latn' <'dflt' > ) ]
MarkAttachClasses: 1
DEI: 91125
ShortTable: maxp 16
  1
  0
  6210
  1100
  128
  49
  6
  2
  0
  1
  1
  0
  64
  0
  2
  1
EndShort
LangName: 1033 "" "" "" "" "" "" "" "" "" "" "" "https://home.6t.lt" "https://www.kreativekorp.com" "" "https://openfontlicense.org"
GaspTable: 1 65535 2 0
Encoding: Custom
UnicodeInterp: none
NameList: AGL For New Fonts
DisplaySize: -48
AntiAlias: 1
FitToEm: 0
WinInfo: 0 27 8
BeginPrivate: 0
EndPrivate
BeginChars: 137 137

StartChar: SF100000
Encoding: 1 9472 1
Width: 720
GlyphClass: 2
Flags: W
LayerCount: 2
Fore
SplineSet
0 240 m 1,0,-1
 720 240 l 1,1,-1
 720 160 l 1,2,-1
 0 160 l 1,3,-1
 0 240 l 1,0,-1
EndSplineSet
EndChar

StartChar: uni2501
Encoding: 2 9473 2
Width: 720
GlyphClass: 2
Flags: W
LayerCount: 2
Fore
SplineSet
0 320 m 1,0,-1
 720 320 l 1,1,-1
 720 80 l 1,2,-1
 0 80 l 1,3,-1
 0 320 l 1,0,-1
EndSplineSet
EndChar

StartChar: SF110000
Encoding: 3 9474 3
Width: 720
GlyphClass: 2
Flags: W
LayerCount: 2
Fore
SplineSet
320 560 m 1,0,-1
 400 560 l 1,1,-1
 400 -160 l 1,2,-1
 320 -160 l 1,3,-1
 320 560 l 1,0,-1
EndSplineSet
EndChar

StartChar: uni2503
Encoding: 4 9475 4
Width: 720
GlyphClass: 2
Flags: W
LayerCount: 2
Fore
SplineSet
240 560 m 1,0,-1
 480 560 l 1,1,-1
 480 -160 l 1,2,-1
 240 -160 l 1,3,-1
 240 560 l 1,0,-1
EndSplineSet
EndChar

StartChar: uni2504
Encoding: 5 9476 5
Width: 720
GlyphClass: 2
Flags: W
LayerCount: 2
Fore
SplineSet
520 240 m 1,0,-1
 680 240 l 1,1,-1
 680 160 l 1,2,-1
 520 160 l 1,3,-1
 520 240 l 1,0,-1
280 240 m 1,4,-1
 440 240 l 1,5,-1
 440 160 l 1,6,-1
 280 160 l 1,7,-1
 280 240 l 1,4,-1
40 240 m 1,8,-1
 200 240 l 1,9,-1
 200 160 l 1,10,-1
 40 160 l 1,11,-1
 40 240 l 1,8,-1
EndSplineSet
EndChar

StartChar: uni2505
Encoding: 6 9477 6
Width: 720
GlyphClass: 2
Flags: W
LayerCount: 2
Fore
SplineSet
520 320 m 1,0,-1
 680 320 l 1,1,-1
 680 80 l 1,2,-1
 520 80 l 1,3,-1
 520 320 l 1,0,-1
280 320 m 1,4,-1
 440 320 l 1,5,-1
 440 80 l 1,6,-1
 280 80 l 1,7,-1
 280 320 l 1,4,-1
40 320 m 1,8,-1
 200 320 l 1,9,-1
 200 80 l 1,10,-1
 40 80 l 1,11,-1
 40 320 l 1,8,-1
EndSplineSet
EndChar

StartChar: uni2506
Encoding: 7 9478 7
Width: 720
GlyphClass: 2
Flags: W
LayerCount: 2
Fore
SplineSet
320 40 m 1,0,-1
 400 40 l 1,1,-1
 400 -120 l 1,2,-1
 320 -120 l 1,3,-1
 320 40 l 1,0,-1
320 280 m 1,4,-1
 400 280 l 1,5,-1
 400 120 l 1,6,-1
 320 120 l 1,7,-1
 320 280 l 1,4,-1
320 520 m 1,8,-1
 400 520 l 1,9,-1
 400 360 l 1,10,-1
 320 360 l 1,11,-1
 320 520 l 1,8,-1
EndSplineSet
EndChar

StartChar: uni2507
Encoding: 8 9479 8
Width: 720
GlyphClass: 2
Flags: W
LayerCount: 2
Fore
SplineSet
240 40 m 1,0,-1
 480 40 l 1,1,-1
 480 -120 l 1,2,-1
 240 -120 l 1,3,-1
 240 40 l 1,0,-1
240 280 m 1,4,-1
 480 280 l 1,5,-1
 480 120 l 1,6,-1
 240 120 l 1,7,-1
 240 280 l 1,4,-1
240 520 m 1,8,-1
 480 520 l 1,9,-1
 480 360 l 1,10,-1
 240 360 l 1,11,-1
 240 520 l 1,8,-1
EndSplineSet
EndChar

StartChar: uni2508
Encoding: 9 9480 9
Width: 720
GlyphClass: 2
Flags: W
LayerCount: 2
Fore
SplineSet
580 240 m 1,0,-1
 680 240 l 1,1,-1
 680 160 l 1,2,-1
 580 160 l 1,3,-1
 580 240 l 1,0,-1
400 240 m 1,4,-1
 500 240 l 1,5,-1
 500 160 l 1,6,-1
 400 160 l 1,7,-1
 400 240 l 1,4,-1
220 240 m 1,8,-1
 320 240 l 1,9,-1
 320 160 l 1,10,-1
 220 160 l 1,11,-1
 220 240 l 1,8,-1
40 240 m 1,12,-1
 140 240 l 1,13,-1
 140 160 l 1,14,-1
 40 160 l 1,15,-1
 40 240 l 1,12,-1
EndSplineSet
EndChar

StartChar: uni2509
Encoding: 10 9481 10
Width: 720
GlyphClass: 2
Flags: W
LayerCount: 2
Fore
SplineSet
580 320 m 1,0,-1
 680 320 l 1,1,-1
 680 80 l 1,2,-1
 580 80 l 1,3,-1
 580 320 l 1,0,-1
400 320 m 1,4,-1
 500 320 l 1,5,-1
 500 80 l 1,6,-1
 400 80 l 1,7,-1
 400 320 l 1,4,-1
220 320 m 1,8,-1
 320 320 l 1,9,-1
 320 80 l 1,10,-1
 220 80 l 1,11,-1
 220 320 l 1,8,-1
40 320 m 1,12,-1
 140 320 l 1,13,-1
 140 80 l 1,14,-1
 40 80 l 1,15,-1
 40 320 l 1,12,-1
EndSplineSet
EndChar

StartChar: uni250A
Encoding: 11 9482 11
Width: 720
GlyphClass: 2
Flags: W
LayerCount: 2
Fore
SplineSet
320 -20 m 1,0,-1
 400 -20 l 1,1,-1
 400 -120 l 1,2,-1
 320 -120 l 1,3,-1
 320 -20 l 1,0,-1
320 160 m 1,4,-1
 400 160 l 1,5,-1
 400 60 l 1,6,-1
 320 60 l 1,7,-1
 320 160 l 1,4,-1
320 340 m 1,8,-1
 400 340 l 1,9,-1
 400 240 l 1,10,-1
 320 240 l 1,11,-1
 320 340 l 1,8,-1
320 520 m 1,12,-1
 400 520 l 1,13,-1
 400 420 l 1,14,-1
 320 420 l 1,15,-1
 320 520 l 1,12,-1
EndSplineSet
EndChar

StartChar: uni250B
Encoding: 12 9483 12
Width: 720
GlyphClass: 2
Flags: W
LayerCount: 2
Fore
SplineSet
240 -20 m 1,0,-1
 480 -20 l 1,1,-1
 480 -120 l 1,2,-1
 240 -120 l 1,3,-1
 240 -20 l 1,0,-1
240 160 m 1,4,-1
 480 160 l 1,5,-1
 480 60 l 1,6,-1
 240 60 l 1,7,-1
 240 160 l 1,4,-1
240 340 m 1,8,-1
 480 340 l 1,9,-1
 480 240 l 1,10,-1
 240 240 l 1,11,-1
 240 340 l 1,8,-1
240 520 m 1,12,-1
 480 520 l 1,13,-1
 480 420 l 1,14,-1
 240 420 l 1,15,-1
 240 520 l 1,12,-1
EndSplineSet
EndChar

StartChar: SF010000
Encoding: 13 9484 13
Width: 720
GlyphClass: 2
Flags: W
LayerCount: 2
Fore
SplineSet
320 240 m 1,0,-1
 720 240 l 1,1,-1
 720 160 l 1,2,-1
 400 160 l 1,3,-1
 400 -160 l 1,4,-1
 320 -160 l 1,5,-1
 320 240 l 1,0,-1
EndSplineSet
EndChar

StartChar: uni250D
Encoding: 14 9485 14
Width: 720
GlyphClass: 2
Flags: W
LayerCount: 2
Fore
SplineSet
320 320 m 1,0,-1
 720 320 l 1,1,-1
 720 80 l 1,2,-1
 400 80 l 1,3,-1
 400 -160 l 1,4,-1
 320 -160 l 1,5,-1
 320 320 l 1,0,-1
EndSplineSet
EndChar

StartChar: uni250E
Encoding: 15 9486 15
Width: 720
GlyphClass: 2
Flags: W
LayerCount: 2
Fore
SplineSet
240 240 m 1,0,-1
 720 240 l 1,1,-1
 720 160 l 1,2,-1
 480 160 l 1,3,-1
 480 -160 l 1,4,-1
 240 -160 l 1,5,-1
 240 240 l 1,0,-1
EndSplineSet
EndChar

StartChar: uni250F
Encoding: 16 9487 16
Width: 720
GlyphClass: 2
Flags: W
LayerCount: 2
Fore
SplineSet
240 320 m 1,0,-1
 720 320 l 1,1,-1
 720 80 l 1,2,-1
 480 80 l 1,3,-1
 480 -160 l 1,4,-1
 240 -160 l 1,5,-1
 240 320 l 1,0,-1
EndSplineSet
EndChar

StartChar: SF030000
Encoding: 17 9488 17
Width: 720
GlyphClass: 2
Flags: W
LayerCount: 2
Fore
SplineSet
0 240 m 1,0,-1
 400 240 l 1,1,-1
 400 -160 l 1,2,-1
 320 -160 l 1,3,-1
 320 160 l 1,4,-1
 0 160 l 1,5,-1
 0 240 l 1,0,-1
EndSplineSet
EndChar

StartChar: uni2511
Encoding: 18 9489 18
Width: 720
GlyphClass: 2
Flags: W
LayerCount: 2
Fore
SplineSet
0 320 m 1,0,-1
 400 320 l 1,1,-1
 400 -160 l 1,2,-1
 320 -160 l 1,3,-1
 320 80 l 1,4,-1
 0 80 l 1,5,-1
 0 320 l 1,0,-1
EndSplineSet
EndChar

StartChar: uni2512
Encoding: 19 9490 19
Width: 720
GlyphClass: 2
Flags: W
LayerCount: 2
Fore
SplineSet
0 240 m 1,0,-1
 480 240 l 1,1,-1
 480 -160 l 1,2,-1
 240 -160 l 1,3,-1
 240 160 l 1,4,-1
 0 160 l 1,5,-1
 0 240 l 1,0,-1
EndSplineSet
EndChar

StartChar: uni2513
Encoding: 20 9491 20
Width: 720
GlyphClass: 2
Flags: W
LayerCount: 2
Fore
SplineSet
0 320 m 1,0,-1
 480 320 l 1,1,-1
 480 -160 l 1,2,-1
 240 -160 l 1,3,-1
 240 80 l 1,4,-1
 0 80 l 1,5,-1
 0 320 l 1,0,-1
EndSplineSet
EndChar

StartChar: SF020000
Encoding: 21 9492 21
Width: 720
GlyphClass: 2
Flags: W
LayerCount: 2
Fore
SplineSet
320 560 m 1,0,-1
 400 560 l 1,1,-1
 400 240 l 1,2,-1
 720 240 l 1,3,-1
 720 160 l 1,4,-1
 320 160 l 1,5,-1
 320 560 l 1,0,-1
EndSplineSet
EndChar

StartChar: uni2515
Encoding: 22 9493 22
Width: 720
GlyphClass: 2
Flags: W
LayerCount: 2
Fore
SplineSet
320 560 m 1,0,-1
 400 560 l 1,1,-1
 400 320 l 1,2,-1
 720 320 l 1,3,-1
 720 80 l 1,4,-1
 320 80 l 1,5,-1
 320 560 l 1,0,-1
EndSplineSet
EndChar

StartChar: uni2516
Encoding: 23 9494 23
Width: 720
GlyphClass: 2
Flags: W
LayerCount: 2
Fore
SplineSet
240 560 m 1,0,-1
 480 560 l 1,1,-1
 480 240 l 1,2,-1
 720 240 l 1,3,-1
 720 160 l 1,4,-1
 240 160 l 1,5,-1
 240 560 l 1,0,-1
EndSplineSet
EndChar

StartChar: uni2517
Encoding: 24 9495 24
Width: 720
GlyphClass: 2
Flags: W
LayerCount: 2
Fore
SplineSet
240 560 m 1,0,-1
 480 560 l 1,1,-1
 480 320 l 1,2,-1
 720 320 l 1,3,-1
 720 80 l 1,4,-1
 240 80 l 1,5,-1
 240 560 l 1,0,-1
EndSplineSet
EndChar

StartChar: SF040000
Encoding: 25 9496 25
Width: 720
GlyphClass: 2
Flags: W
LayerCount: 2
Fore
SplineSet
320 560 m 1,0,-1
 400 560 l 1,1,-1
 400 160 l 1,2,-1
 0 160 l 1,3,-1
 0 240 l 1,4,-1
 320 240 l 1,5,-1
 320 560 l 1,0,-1
EndSplineSet
EndChar

StartChar: uni2519
Encoding: 26 9497 26
Width: 720
GlyphClass: 2
Flags: W
LayerCount: 2
Fore
SplineSet
320 560 m 1,0,-1
 400 560 l 1,1,-1
 400 80 l 1,2,-1
 0 80 l 1,3,-1
 0 320 l 1,4,-1
 320 320 l 1,5,-1
 320 560 l 1,0,-1
EndSplineSet
EndChar

StartChar: uni251A
Encoding: 27 9498 27
Width: 720
GlyphClass: 2
Flags: W
LayerCount: 2
Fore
SplineSet
240 560 m 1,0,-1
 480 560 l 1,1,-1
 480 160 l 1,2,-1
 0 160 l 1,3,-1
 0 240 l 1,4,-1
 240 240 l 1,5,-1
 240 560 l 1,0,-1
EndSplineSet
EndChar

StartChar: uni251B
Encoding: 28 9499 28
Width: 720
GlyphClass: 2
Flags: W
LayerCount: 2
Fore
SplineSet
240 560 m 1,0,-1
 480 560 l 1,1,-1
 480 80 l 1,2,-1
 0 80 l 1,3,-1
 0 320 l 1,4,-1
 240 320 l 1,5,-1
 240 560 l 1,0,-1
EndSplineSet
EndChar

StartChar: SF080000
Encoding: 29 9500 29
Width: 720
GlyphClass: 2
Flags: W
LayerCount: 2
Fore
SplineSet
320 560 m 1,0,-1
 400 560 l 1,1,-1
 400 240 l 1,2,-1
 720 240 l 1,3,-1
 720 160 l 1,4,-1
 400 160 l 1,5,-1
 400 -160 l 1,6,-1
 320 -160 l 1,7,-1
 320 560 l 1,0,-1
EndSplineSet
EndChar

StartChar: uni251D
Encoding: 30 9501 30
Width: 720
GlyphClass: 2
Flags: W
LayerCount: 2
Fore
SplineSet
320 560 m 1,0,-1
 400 560 l 1,1,-1
 400 320 l 1,2,-1
 720 320 l 1,3,-1
 720 80 l 1,4,-1
 400 80 l 1,5,-1
 400 -160 l 1,6,-1
 320 -160 l 1,7,-1
 320 560 l 1,0,-1
EndSplineSet
EndChar

StartChar: uni251E
Encoding: 31 9502 31
Width: 720
GlyphClass: 2
Flags: W
LayerCount: 2
Fore
SplineSet
320 160 m 1,0,-1
 240 160 l 1,1,-1
 240 560 l 1,2,-1
 480 560 l 1,3,-1
 480 240 l 1,4,-1
 720 240 l 1,5,-1
 720 160 l 1,6,-1
 400 160 l 1,7,-1
 400 -160 l 1,8,-1
 320 -160 l 1,9,-1
 320 160 l 1,0,-1
EndSplineSet
EndChar

StartChar: uni251F
Encoding: 32 9503 32
Width: 720
GlyphClass: 2
Flags: W
LayerCount: 2
Fore
SplineSet
320 560 m 1,0,-1
 400 560 l 1,1,-1
 400 240 l 1,2,-1
 720 240 l 1,3,-1
 720 160 l 1,4,-1
 480 160 l 1,5,-1
 480 -160 l 1,6,-1
 240 -160 l 1,7,-1
 240 240 l 1,8,-1
 320 240 l 1,9,-1
 320 560 l 1,0,-1
EndSplineSet
EndChar

StartChar: uni2520
Encoding: 33 9504 33
Width: 720
GlyphClass: 2
Flags: W
LayerCount: 2
Fore
SplineSet
240 560 m 1,0,-1
 480 560 l 1,1,-1
 480 240 l 1,2,-1
 720 240 l 1,3,-1
 720 160 l 1,4,-1
 480 160 l 1,5,-1
 480 -160 l 1,6,-1
 240 -160 l 1,7,-1
 240 560 l 1,0,-1
EndSplineSet
EndChar

StartChar: uni2521
Encoding: 34 9505 34
Width: 720
GlyphClass: 2
Flags: W
LayerCount: 2
Fore
SplineSet
320 80 m 1,0,-1
 240 80 l 1,1,-1
 240 560 l 1,2,-1
 480 560 l 1,3,-1
 480 320 l 1,4,-1
 720 320 l 1,5,-1
 720 80 l 1,6,-1
 400 80 l 1,7,-1
 400 -160 l 1,8,-1
 320 -160 l 1,9,-1
 320 80 l 1,0,-1
EndSplineSet
EndChar

StartChar: uni2522
Encoding: 35 9506 35
Width: 720
GlyphClass: 2
Flags: W
LayerCount: 2
Fore
SplineSet
320 560 m 1,0,-1
 400 560 l 1,1,-1
 400 320 l 1,2,-1
 720 320 l 1,3,-1
 720 80 l 1,4,-1
 480 80 l 1,5,-1
 480 -160 l 1,6,-1
 240 -160 l 1,7,-1
 240 320 l 1,8,-1
 320 320 l 1,9,-1
 320 560 l 1,0,-1
EndSplineSet
EndChar

StartChar: uni2523
Encoding: 36 9507 36
Width: 720
GlyphClass: 2
Flags: W
LayerCount: 2
Fore
SplineSet
240 560 m 1,0,-1
 480 560 l 1,1,-1
 480 320 l 1,2,-1
 720 320 l 1,3,-1
 720 80 l 1,4,-1
 480 80 l 1,5,-1
 480 -160 l 1,6,-1
 240 -160 l 1,7,-1
 240 560 l 1,0,-1
EndSplineSet
EndChar

StartChar: SF090000
Encoding: 37 9508 37
Width: 720
GlyphClass: 2
Flags: W
LayerCount: 2
Fore
SplineSet
320 560 m 1,0,-1
 400 560 l 1,1,-1
 400 -160 l 1,2,-1
 320 -160 l 1,3,-1
 320 160 l 1,4,-1
 0 160 l 1,5,-1
 0 240 l 1,6,-1
 320 240 l 1,7,-1
 320 560 l 1,0,-1
EndSplineSet
EndChar

StartChar: uni2525
Encoding: 38 9509 38
Width: 720
GlyphClass: 2
Flags: W
LayerCount: 2
Fore
SplineSet
320 560 m 1,0,-1
 400 560 l 1,1,-1
 400 -160 l 1,2,-1
 320 -160 l 1,3,-1
 320 80 l 1,4,-1
 0 80 l 1,5,-1
 0 320 l 1,6,-1
 320 320 l 1,7,-1
 320 560 l 1,0,-1
EndSplineSet
EndChar

StartChar: uni2526
Encoding: 39 9510 39
Width: 720
GlyphClass: 2
Flags: W
LayerCount: 2
Fore
SplineSet
240 240 m 1,0,-1
 240 560 l 1,1,-1
 480 560 l 1,2,-1
 480 160 l 1,3,-1
 400 160 l 1,4,-1
 400 -160 l 1,5,-1
 320 -160 l 1,6,-1
 320 160 l 1,7,-1
 0 160 l 1,8,-1
 0 240 l 1,9,-1
 240 240 l 1,0,-1
EndSplineSet
EndChar

StartChar: uni2527
Encoding: 40 9511 40
Width: 720
GlyphClass: 2
Flags: W
LayerCount: 2
Fore
SplineSet
320 560 m 1,0,-1
 400 560 l 1,1,-1
 400 240 l 1,2,-1
 480 240 l 1,3,-1
 480 -160 l 1,4,-1
 240 -160 l 1,5,-1
 240 160 l 1,6,-1
 0 160 l 1,7,-1
 0 240 l 1,8,-1
 320 240 l 1,9,-1
 320 560 l 1,0,-1
EndSplineSet
EndChar

StartChar: uni2528
Encoding: 41 9512 41
Width: 720
GlyphClass: 2
Flags: W
LayerCount: 2
Fore
SplineSet
240 560 m 1,0,-1
 480 560 l 1,1,-1
 480 -160 l 1,2,-1
 240 -160 l 1,3,-1
 240 160 l 1,4,-1
 0 160 l 1,5,-1
 0 240 l 1,6,-1
 240 240 l 1,7,-1
 240 560 l 1,0,-1
EndSplineSet
EndChar

StartChar: uni2529
Encoding: 42 9513 42
Width: 720
GlyphClass: 2
Flags: W
LayerCount: 2
Fore
SplineSet
0 80 m 1,0,-1
 0 320 l 1,1,-1
 240 320 l 1,2,-1
 240 560 l 1,3,-1
 480 560 l 1,4,-1
 480 80 l 1,5,-1
 400 80 l 1,6,-1
 400 -160 l 1,7,-1
 320 -160 l 1,8,-1
 320 80 l 1,9,-1
 0 80 l 1,0,-1
EndSplineSet
EndChar

StartChar: uni252A
Encoding: 43 9514 43
Width: 720
GlyphClass: 2
Flags: W
LayerCount: 2
Fore
SplineSet
320 560 m 1,0,-1
 400 560 l 1,1,-1
 400 320 l 1,2,-1
 480 320 l 1,3,-1
 480 -160 l 1,4,-1
 240 -160 l 1,5,-1
 240 80 l 1,6,-1
 0 80 l 1,7,-1
 0 320 l 1,8,-1
 320 320 l 1,9,-1
 320 560 l 1,0,-1
EndSplineSet
EndChar

StartChar: uni252B
Encoding: 44 9515 44
Width: 720
GlyphClass: 2
Flags: W
LayerCount: 2
Fore
SplineSet
240 560 m 1,0,-1
 480 560 l 1,1,-1
 480 -160 l 1,2,-1
 240 -160 l 1,3,-1
 240 80 l 1,4,-1
 0 80 l 1,5,-1
 0 320 l 1,6,-1
 240 320 l 1,7,-1
 240 560 l 1,0,-1
EndSplineSet
EndChar

StartChar: SF060000
Encoding: 45 9516 45
Width: 720
GlyphClass: 2
Flags: W
LayerCount: 2
Fore
SplineSet
0 240 m 1,0,-1
 720 240 l 1,1,-1
 720 160 l 1,2,-1
 400 160 l 1,3,-1
 400 -160 l 1,4,-1
 320 -160 l 1,5,-1
 320 160 l 1,6,-1
 0 160 l 1,7,-1
 0 240 l 1,0,-1
EndSplineSet
EndChar

StartChar: uni252D
Encoding: 46 9517 46
Width: 720
GlyphClass: 2
Flags: W
LayerCount: 2
Fore
SplineSet
0 320 m 1,0,-1
 400 320 l 1,1,-1
 400 240 l 1,2,-1
 720 240 l 1,3,-1
 720 160 l 1,4,-1
 400 160 l 1,5,-1
 400 -160 l 1,6,-1
 320 -160 l 1,7,-1
 320 80 l 1,8,-1
 0 80 l 1,9,-1
 0 320 l 1,0,-1
EndSplineSet
EndChar

StartChar: uni252E
Encoding: 47 9518 47
Width: 720
GlyphClass: 2
Flags: W
LayerCount: 2
Fore
SplineSet
320 320 m 1,0,-1
 720 320 l 1,1,-1
 720 80 l 1,2,-1
 400 80 l 1,3,-1
 400 -160 l 1,4,-1
 320 -160 l 1,5,-1
 320 160 l 1,6,-1
 0 160 l 1,7,-1
 0 240 l 1,8,-1
 320 240 l 1,9,-1
 320 320 l 1,0,-1
EndSplineSet
EndChar

StartChar: uni252F
Encoding: 48 9519 48
Width: 720
GlyphClass: 2
Flags: W
LayerCount: 2
Fore
SplineSet
0 320 m 1,0,-1
 720 320 l 1,1,-1
 720 80 l 1,2,-1
 400 80 l 1,3,-1
 400 -160 l 1,4,-1
 320 -160 l 1,5,-1
 320 80 l 1,6,-1
 0 80 l 1,7,-1
 0 320 l 1,0,-1
EndSplineSet
EndChar

StartChar: uni2530
Encoding: 49 9520 49
Width: 720
GlyphClass: 2
Flags: W
LayerCount: 2
Fore
SplineSet
0 240 m 1,0,-1
 720 240 l 1,1,-1
 720 160 l 1,2,-1
 480 160 l 1,3,-1
 480 -160 l 1,4,-1
 240 -160 l 1,5,-1
 240 160 l 1,6,-1
 0 160 l 1,7,-1
 0 240 l 1,0,-1
EndSplineSet
EndChar

StartChar: uni2531
Encoding: 50 9521 50
Width: 720
GlyphClass: 2
Flags: W
LayerCount: 2
Fore
SplineSet
0 320 m 1,0,-1
 480 320 l 1,1,-1
 480 240 l 1,2,-1
 720 240 l 1,3,-1
 720 160 l 1,4,-1
 480 160 l 1,5,-1
 480 -160 l 1,6,-1
 240 -160 l 1,7,-1
 240 80 l 1,8,-1
 0 80 l 1,9,-1
 0 320 l 1,0,-1
EndSplineSet
EndChar

StartChar: uni2532
Encoding: 51 9522 51
Width: 720
GlyphClass: 2
Flags: W
LayerCount: 2
Fore
SplineSet
240 320 m 1,0,-1
 720 320 l 1,1,-1
 720 80 l 1,2,-1
 480 80 l 1,3,-1
 480 -160 l 1,4,-1
 240 -160 l 1,5,-1
 240 160 l 1,6,-1
 0 160 l 1,7,-1
 0 240 l 1,8,-1
 240 240 l 1,9,-1
 240 320 l 1,0,-1
EndSplineSet
EndChar

StartChar: uni2533
Encoding: 52 9523 52
Width: 720
GlyphClass: 2
Flags: W
LayerCount: 2
Fore
SplineSet
0 320 m 1,0,-1
 720 320 l 1,1,-1
 720 80 l 1,2,-1
 480 80 l 1,3,-1
 480 -160 l 1,4,-1
 240 -160 l 1,5,-1
 240 80 l 1,6,-1
 0 80 l 1,7,-1
 0 320 l 1,0,-1
EndSplineSet
EndChar

StartChar: SF070000
Encoding: 53 9524 53
Width: 720
GlyphClass: 2
Flags: W
LayerCount: 2
Fore
SplineSet
320 560 m 1,0,-1
 400 560 l 1,1,-1
 400 240 l 1,2,-1
 720 240 l 1,3,-1
 720 160 l 1,4,-1
 0 160 l 1,5,-1
 0 240 l 1,6,-1
 320 240 l 1,7,-1
 320 560 l 1,0,-1
EndSplineSet
EndChar

StartChar: uni2535
Encoding: 54 9525 54
Width: 720
GlyphClass: 2
Flags: W
LayerCount: 2
Fore
SplineSet
320 320 m 1,0,-1
 320 560 l 1,1,-1
 400 560 l 1,2,-1
 400 240 l 1,3,-1
 720 240 l 1,4,-1
 720 160 l 1,5,-1
 400 160 l 1,6,-1
 400 80 l 1,7,-1
 0 80 l 1,8,-1
 0 320 l 1,9,-1
 320 320 l 1,0,-1
EndSplineSet
EndChar

StartChar: uni2536
Encoding: 55 9526 55
Width: 720
GlyphClass: 2
Flags: W
LayerCount: 2
Fore
SplineSet
320 240 m 1,0,-1
 320 560 l 1,1,-1
 400 560 l 1,2,-1
 400 320 l 1,3,-1
 720 320 l 1,4,-1
 720 80 l 1,5,-1
 320 80 l 1,6,-1
 320 160 l 1,7,-1
 0 160 l 1,8,-1
 0 240 l 1,9,-1
 320 240 l 1,0,-1
EndSplineSet
EndChar

StartChar: uni2537
Encoding: 56 9527 56
Width: 720
GlyphClass: 2
Flags: W
LayerCount: 2
Fore
SplineSet
320 560 m 1,0,-1
 400 560 l 1,1,-1
 400 320 l 1,2,-1
 720 320 l 1,3,-1
 720 80 l 1,4,-1
 0 80 l 1,5,-1
 0 320 l 1,6,-1
 320 320 l 1,7,-1
 320 560 l 1,0,-1
EndSplineSet
EndChar

StartChar: uni2538
Encoding: 57 9528 57
Width: 720
GlyphClass: 2
Flags: W
LayerCount: 2
Fore
SplineSet
240 560 m 1,0,-1
 480 560 l 1,1,-1
 480 240 l 1,2,-1
 720 240 l 1,3,-1
 720 160 l 1,4,-1
 0 160 l 1,5,-1
 0 240 l 1,6,-1
 240 240 l 1,7,-1
 240 560 l 1,0,-1
EndSplineSet
EndChar

StartChar: uni2539
Encoding: 58 9529 58
Width: 720
GlyphClass: 2
Flags: W
LayerCount: 2
Fore
SplineSet
0 80 m 1,0,-1
 0 320 l 1,1,-1
 240 320 l 1,2,-1
 240 560 l 1,3,-1
 480 560 l 1,4,-1
 480 240 l 1,5,-1
 720 240 l 1,6,-1
 720 160 l 1,7,-1
 480 160 l 1,8,-1
 480 80 l 1,9,-1
 0 80 l 1,0,-1
EndSplineSet
EndChar

StartChar: uni253A
Encoding: 59 9530 59
Width: 720
GlyphClass: 2
Flags: W
LayerCount: 2
Fore
SplineSet
240 240 m 1,0,-1
 240 560 l 1,1,-1
 480 560 l 1,2,-1
 480 320 l 1,3,-1
 720 320 l 1,4,-1
 720 80 l 1,5,-1
 240 80 l 1,6,-1
 240 160 l 1,7,-1
 0 160 l 1,8,-1
 0 240 l 1,9,-1
 240 240 l 1,0,-1
EndSplineSet
EndChar

StartChar: uni253B
Encoding: 60 9531 60
Width: 720
GlyphClass: 2
Flags: W
LayerCount: 2
Fore
SplineSet
240 560 m 1,0,-1
 480 560 l 1,1,-1
 480 320 l 1,2,-1
 720 320 l 1,3,-1
 720 80 l 1,4,-1
 0 80 l 1,5,-1
 0 320 l 1,6,-1
 240 320 l 1,7,-1
 240 560 l 1,0,-1
EndSplineSet
EndChar

StartChar: SF050000
Encoding: 61 9532 61
Width: 720
GlyphClass: 2
Flags: W
LayerCount: 2
Fore
SplineSet
320 560 m 1,0,-1
 400 560 l 1,1,-1
 400 240 l 1,2,-1
 720 240 l 1,3,-1
 720 160 l 1,4,-1
 400 160 l 1,5,-1
 400 -160 l 1,6,-1
 320 -160 l 1,7,-1
 320 160 l 1,8,-1
 0 160 l 1,9,-1
 0 240 l 1,10,-1
 320 240 l 1,11,-1
 320 560 l 1,0,-1
EndSplineSet
EndChar

StartChar: uni253D
Encoding: 62 9533 62
Width: 720
GlyphClass: 2
Flags: W
LayerCount: 2
Fore
SplineSet
320 560 m 1,0,-1
 400 560 l 1,1,-1
 400 240 l 1,2,-1
 720 240 l 1,3,-1
 720 160 l 1,4,-1
 400 160 l 1,5,-1
 400 -160 l 1,6,-1
 320 -160 l 1,7,-1
 320 80 l 1,8,-1
 0 80 l 1,9,-1
 0 320 l 1,10,-1
 320 320 l 1,11,-1
 320 560 l 1,0,-1
EndSplineSet
EndChar

StartChar: uni253E
Encoding: 63 9534 63
Width: 720
GlyphClass: 2
Flags: W
LayerCount: 2
Fore
SplineSet
320 560 m 1,0,-1
 400 560 l 1,1,-1
 400 320 l 1,2,-1
 720 320 l 1,3,-1
 720 80 l 1,4,-1
 400 80 l 1,5,-1
 400 -160 l 1,6,-1
 320 -160 l 1,7,-1
 320 160 l 1,8,-1
 0 160 l 1,9,-1
 0 240 l 1,10,-1
 320 240 l 1,11,-1
 320 560 l 1,0,-1
EndSplineSet
EndChar

StartChar: uni253F
Encoding: 64 9535 64
Width: 720
GlyphClass: 2
Flags: W
LayerCount: 2
Fore
SplineSet
320 560 m 1,0,-1
 400 560 l 1,1,-1
 400 320 l 1,2,-1
 720 320 l 1,3,-1
 720 80 l 1,4,-1
 400 80 l 1,5,-1
 400 -160 l 1,6,-1
 320 -160 l 1,7,-1
 320 80 l 1,8,-1
 0 80 l 1,9,-1
 0 320 l 1,10,-1
 320 320 l 1,11,-1
 320 560 l 1,0,-1
EndSplineSet
EndChar

StartChar: uni2540
Encoding: 65 9536 65
Width: 720
GlyphClass: 2
Flags: W
LayerCount: 2
Fore
SplineSet
240 560 m 1,0,-1
 480 560 l 1,1,-1
 480 240 l 1,2,-1
 720 240 l 1,3,-1
 720 160 l 1,4,-1
 400 160 l 1,5,-1
 400 -160 l 1,6,-1
 320 -160 l 1,7,-1
 320 160 l 1,8,-1
 0 160 l 1,9,-1
 0 240 l 1,10,-1
 240 240 l 1,11,-1
 240 560 l 1,0,-1
EndSplineSet
EndChar

StartChar: uni2541
Encoding: 66 9537 66
Width: 720
GlyphClass: 2
Flags: W
LayerCount: 2
Fore
SplineSet
320 560 m 1,0,-1
 400 560 l 1,1,-1
 400 240 l 1,2,-1
 720 240 l 1,3,-1
 720 160 l 1,4,-1
 480 160 l 1,5,-1
 480 -160 l 1,6,-1
 240 -160 l 1,7,-1
 240 160 l 1,8,-1
 0 160 l 1,9,-1
 0 240 l 1,10,-1
 320 240 l 1,11,-1
 320 560 l 1,0,-1
EndSplineSet
EndChar

StartChar: uni2542
Encoding: 67 9538 67
Width: 720
GlyphClass: 2
Flags: W
LayerCount: 2
Fore
SplineSet
240 560 m 1,0,-1
 480 560 l 1,1,-1
 480 240 l 1,2,-1
 720 240 l 1,3,-1
 720 160 l 1,4,-1
 480 160 l 1,5,-1
 480 -160 l 1,6,-1
 240 -160 l 1,7,-1
 240 160 l 1,8,-1
 0 160 l 1,9,-1
 0 240 l 1,10,-1
 240 240 l 1,11,-1
 240 560 l 1,0,-1
EndSplineSet
EndChar

StartChar: uni2543
Encoding: 68 9539 68
Width: 720
GlyphClass: 2
Flags: W
LayerCount: 2
Fore
SplineSet
0 80 m 1,0,-1
 0 320 l 1,1,-1
 240 320 l 1,2,-1
 240 560 l 1,3,-1
 480 560 l 1,4,-1
 480 240 l 1,5,-1
 720 240 l 1,6,-1
 720 160 l 1,7,-1
 480 160 l 1,8,-1
 480 80 l 1,9,-1
 400 80 l 1,10,-1
 400 -160 l 1,11,-1
 320 -160 l 1,12,-1
 320 80 l 1,13,-1
 0 80 l 1,0,-1
EndSplineSet
EndChar

StartChar: uni2544
Encoding: 69 9540 69
Width: 720
GlyphClass: 2
Flags: W
LayerCount: 2
Fore
SplineSet
240 240 m 1,0,-1
 240 560 l 1,1,-1
 480 560 l 1,2,-1
 480 320 l 1,3,-1
 720 320 l 1,4,-1
 720 80 l 1,5,-1
 400 80 l 1,6,-1
 400 -160 l 1,7,-1
 320 -160 l 1,8,-1
 320 80 l 1,9,-1
 240 80 l 1,10,-1
 240 160 l 1,11,-1
 0 160 l 1,12,-1
 0 240 l 1,13,-1
 240 240 l 1,0,-1
EndSplineSet
EndChar

StartChar: uni2545
Encoding: 70 9541 70
Width: 720
GlyphClass: 2
Flags: W
LayerCount: 2
Fore
SplineSet
320 560 m 1,0,-1
 400 560 l 1,1,-1
 400 320 l 1,2,-1
 480 320 l 1,3,-1
 480 240 l 1,4,-1
 720 240 l 1,5,-1
 720 160 l 1,6,-1
 480 160 l 1,7,-1
 480 -160 l 1,8,-1
 240 -160 l 1,9,-1
 240 80 l 1,10,-1
 0 80 l 1,11,-1
 0 320 l 1,12,-1
 320 320 l 1,13,-1
 320 560 l 1,0,-1
EndSplineSet
EndChar

StartChar: uni2546
Encoding: 71 9542 71
Width: 720
GlyphClass: 2
Flags: W
LayerCount: 2
Fore
SplineSet
320 560 m 1,0,-1
 400 560 l 1,1,-1
 400 320 l 1,2,-1
 720 320 l 1,3,-1
 720 80 l 1,4,-1
 480 80 l 1,5,-1
 480 -160 l 1,6,-1
 240 -160 l 1,7,-1
 240 160 l 1,8,-1
 0 160 l 1,9,-1
 0 240 l 1,10,-1
 240 240 l 1,11,-1
 240 320 l 1,12,-1
 320 320 l 1,13,-1
 320 560 l 1,0,-1
EndSplineSet
EndChar

StartChar: uni2547
Encoding: 72 9543 72
Width: 720
GlyphClass: 2
Flags: W
LayerCount: 2
Fore
SplineSet
240 560 m 1,0,-1
 480 560 l 1,1,-1
 480 320 l 1,2,-1
 720 320 l 1,3,-1
 720 80 l 1,4,-1
 400 80 l 1,5,-1
 400 -160 l 1,6,-1
 320 -160 l 1,7,-1
 320 80 l 1,8,-1
 0 80 l 1,9,-1
 0 320 l 1,10,-1
 240 320 l 1,11,-1
 240 560 l 1,0,-1
EndSplineSet
EndChar

StartChar: uni2548
Encoding: 73 9544 73
Width: 720
GlyphClass: 2
Flags: W
LayerCount: 2
Fore
SplineSet
320 560 m 1,0,-1
 400 560 l 1,1,-1
 400 320 l 1,2,-1
 720 320 l 1,3,-1
 720 80 l 1,4,-1
 480 80 l 1,5,-1
 480 -160 l 1,6,-1
 240 -160 l 1,7,-1
 240 80 l 1,8,-1
 0 80 l 1,9,-1
 0 320 l 1,10,-1
 320 320 l 1,11,-1
 320 560 l 1,0,-1
EndSplineSet
EndChar

StartChar: uni2549
Encoding: 74 9545 74
Width: 720
GlyphClass: 2
Flags: W
LayerCount: 2
Fore
SplineSet
240 560 m 1,0,-1
 480 560 l 1,1,-1
 480 240 l 1,2,-1
 720 240 l 1,3,-1
 720 160 l 1,4,-1
 480 160 l 1,5,-1
 480 -160 l 1,6,-1
 240 -160 l 1,7,-1
 240 80 l 1,8,-1
 0 80 l 1,9,-1
 0 320 l 1,10,-1
 240 320 l 1,11,-1
 240 560 l 1,0,-1
EndSplineSet
EndChar

StartChar: uni254A
Encoding: 75 9546 75
Width: 720
GlyphClass: 2
Flags: W
LayerCount: 2
Fore
SplineSet
240 560 m 1,0,-1
 480 560 l 1,1,-1
 480 320 l 1,2,-1
 720 320 l 1,3,-1
 720 80 l 1,4,-1
 480 80 l 1,5,-1
 480 -160 l 1,6,-1
 240 -160 l 1,7,-1
 240 160 l 1,8,-1
 0 160 l 1,9,-1
 0 240 l 1,10,-1
 240 240 l 1,11,-1
 240 560 l 1,0,-1
EndSplineSet
EndChar

StartChar: uni254B
Encoding: 76 9547 76
Width: 720
GlyphClass: 2
Flags: W
LayerCount: 2
Fore
SplineSet
240 560 m 1,0,-1
 480 560 l 1,1,-1
 480 320 l 1,2,-1
 720 320 l 1,3,-1
 720 80 l 1,4,-1
 480 80 l 1,5,-1
 480 -160 l 1,6,-1
 240 -160 l 1,7,-1
 240 80 l 1,8,-1
 0 80 l 1,9,-1
 0 320 l 1,10,-1
 240 320 l 1,11,-1
 240 560 l 1,0,-1
EndSplineSet
EndChar

StartChar: uni254C
Encoding: 77 9548 77
Width: 720
GlyphClass: 2
Flags: W
LayerCount: 2
Fore
SplineSet
400 240 m 1,0,-1
 680 240 l 1,1,-1
 680 160 l 1,2,-1
 400 160 l 1,3,-1
 400 240 l 1,0,-1
40 240 m 1,4,-1
 320 240 l 1,5,-1
 320 160 l 1,6,-1
 40 160 l 1,7,-1
 40 240 l 1,4,-1
EndSplineSet
EndChar

StartChar: uni254D
Encoding: 78 9549 78
Width: 720
GlyphClass: 2
Flags: W
LayerCount: 2
Fore
SplineSet
400 320 m 1,0,-1
 680 320 l 1,1,-1
 680 80 l 1,2,-1
 400 80 l 1,3,-1
 400 320 l 1,0,-1
40 320 m 1,4,-1
 320 320 l 1,5,-1
 320 80 l 1,6,-1
 40 80 l 1,7,-1
 40 320 l 1,4,-1
EndSplineSet
EndChar

StartChar: uni254E
Encoding: 79 9550 79
Width: 720
GlyphClass: 2
Flags: W
LayerCount: 2
Fore
SplineSet
320 160 m 1,0,-1
 400 160 l 1,1,-1
 400 -120 l 1,2,-1
 320 -120 l 1,3,-1
 320 160 l 1,0,-1
320 520 m 1,4,-1
 400 520 l 1,5,-1
 400 240 l 1,6,-1
 320 240 l 1,7,-1
 320 520 l 1,4,-1
EndSplineSet
EndChar

StartChar: uni254F
Encoding: 80 9551 80
Width: 720
GlyphClass: 2
Flags: W
LayerCount: 2
Fore
SplineSet
240 160 m 1,0,-1
 480 160 l 1,1,-1
 480 -120 l 1,2,-1
 240 -120 l 1,3,-1
 240 160 l 1,0,-1
240 520 m 1,4,-1
 480 520 l 1,5,-1
 480 240 l 1,6,-1
 240 240 l 1,7,-1
 240 520 l 1,4,-1
EndSplineSet
EndChar

StartChar: SF430000
Encoding: 81 9552 81
Width: 720
GlyphClass: 2
Flags: W
LayerCount: 2
Fore
SplineSet
0 160 m 1,0,-1
 720 160 l 1,1,-1
 720 80 l 1,2,-1
 0 80 l 1,3,-1
 0 160 l 1,0,-1
0 320 m 1,4,-1
 720 320 l 1,5,-1
 720 240 l 1,6,-1
 0 240 l 1,7,-1
 0 320 l 1,4,-1
EndSplineSet
EndChar

StartChar: SF240000
Encoding: 82 9553 82
Width: 720
GlyphClass: 2
Flags: W
LayerCount: 2
Fore
SplineSet
400 560 m 1,0,-1
 480 560 l 1,1,-1
 480 -160 l 1,2,-1
 400 -160 l 1,3,-1
 400 560 l 1,0,-1
240 560 m 1,4,-1
 320 560 l 1,5,-1
 320 -160 l 1,6,-1
 240 -160 l 1,7,-1
 240 560 l 1,4,-1
EndSplineSet
EndChar

StartChar: SF390000
Encoding: 83 9556 83
Width: 720
GlyphClass: 2
Flags: W
LayerCount: 2
Fore
SplineSet
400 160 m 1,0,-1
 720 160 l 1,1,-1
 720 80 l 1,2,-1
 480 80 l 1,3,-1
 480 -160 l 1,4,-1
 400 -160 l 1,5,-1
 400 160 l 1,0,-1
240 320 m 1,6,-1
 720 320 l 1,7,-1
 720 240 l 1,8,-1
 320 240 l 1,9,-1
 320 -160 l 1,10,-1
 240 -160 l 1,11,-1
 240 320 l 1,6,-1
EndSplineSet
EndChar

StartChar: SF250000
Encoding: 84 9559 84
Width: 720
GlyphClass: 2
Flags: W
LayerCount: 2
Fore
SplineSet
0 160 m 1,0,-1
 320 160 l 1,1,-1
 320 -160 l 1,2,-1
 240 -160 l 1,3,-1
 240 80 l 1,4,-1
 0 80 l 1,5,-1
 0 160 l 1,0,-1
0 320 m 1,6,-1
 480 320 l 1,7,-1
 480 -160 l 1,8,-1
 400 -160 l 1,9,-1
 400 240 l 1,10,-1
 0 240 l 1,11,-1
 0 320 l 1,6,-1
EndSplineSet
EndChar

StartChar: SF380000
Encoding: 85 9562 85
Width: 720
GlyphClass: 2
Flags: W
LayerCount: 2
Fore
SplineSet
240 560 m 1,0,-1
 320 560 l 1,1,-1
 320 160 l 1,2,-1
 720 160 l 1,3,-1
 720 80 l 1,4,-1
 240 80 l 1,5,-1
 240 560 l 1,0,-1
400 560 m 1,6,-1
 480 560 l 1,7,-1
 480 320 l 1,8,-1
 720 320 l 1,9,-1
 720 240 l 1,10,-1
 400 240 l 1,11,-1
 400 560 l 1,6,-1
EndSplineSet
EndChar

StartChar: SF260000
Encoding: 86 9565 86
Width: 720
GlyphClass: 2
Flags: W
LayerCount: 2
Fore
SplineSet
400 560 m 1,0,-1
 480 560 l 1,1,-1
 480 80 l 1,2,-1
 0 80 l 1,3,-1
 0 160 l 1,4,-1
 400 160 l 1,5,-1
 400 560 l 1,0,-1
240 560 m 1,6,-1
 320 560 l 1,7,-1
 320 240 l 1,8,-1
 0 240 l 1,9,-1
 0 320 l 1,10,-1
 240 320 l 1,11,-1
 240 560 l 1,6,-1
EndSplineSet
EndChar

StartChar: SF420000
Encoding: 87 9568 87
Width: 720
GlyphClass: 2
Flags: W
LayerCount: 2
Fore
SplineSet
400 160 m 1,0,-1
 720 160 l 1,1,-1
 720 80 l 1,2,-1
 480 80 l 1,3,-1
 480 -160 l 1,4,-1
 400 -160 l 1,5,-1
 400 160 l 1,0,-1
400 560 m 1,6,-1
 480 560 l 1,7,-1
 480 320 l 1,8,-1
 720 320 l 1,9,-1
 720 240 l 1,10,-1
 400 240 l 1,11,-1
 400 560 l 1,6,-1
240 560 m 1,12,-1
 320 560 l 1,13,-1
 320 -160 l 1,14,-1
 240 -160 l 1,15,-1
 240 560 l 1,12,-1
EndSplineSet
EndChar

StartChar: SF230000
Encoding: 88 9571 88
Width: 720
GlyphClass: 2
Flags: W
LayerCount: 2
Fore
SplineSet
400 560 m 1,0,-1
 480 560 l 1,1,-1
 480 -160 l 1,2,-1
 400 -160 l 1,3,-1
 400 560 l 1,0,-1
0 160 m 1,4,-1
 320 160 l 1,5,-1
 320 -160 l 1,6,-1
 240 -160 l 1,7,-1
 240 80 l 1,8,-1
 0 80 l 1,9,-1
 0 160 l 1,4,-1
240 560 m 1,10,-1
 320 560 l 1,11,-1
 320 240 l 1,12,-1
 0 240 l 1,13,-1
 0 320 l 1,14,-1
 240 320 l 1,15,-1
 240 560 l 1,10,-1
EndSplineSet
EndChar

StartChar: SF410000
Encoding: 89 9574 89
Width: 720
GlyphClass: 2
Flags: W
LayerCount: 2
Fore
SplineSet
400 160 m 1,0,-1
 720 160 l 1,1,-1
 720 80 l 1,2,-1
 480 80 l 1,3,-1
 480 -160 l 1,4,-1
 400 -160 l 1,5,-1
 400 160 l 1,0,-1
0 160 m 1,6,-1
 320 160 l 1,7,-1
 320 -160 l 1,8,-1
 240 -160 l 1,9,-1
 240 80 l 1,10,-1
 0 80 l 1,11,-1
 0 160 l 1,6,-1
0 320 m 1,12,-1
 720 320 l 1,13,-1
 720 240 l 1,14,-1
 0 240 l 1,15,-1
 0 320 l 1,12,-1
EndSplineSet
EndChar

StartChar: SF400000
Encoding: 90 9577 90
Width: 720
GlyphClass: 2
Flags: W
LayerCount: 2
Fore
SplineSet
0 160 m 1,0,-1
 720 160 l 1,1,-1
 720 80 l 1,2,-1
 0 80 l 1,3,-1
 0 160 l 1,0,-1
400 560 m 1,4,-1
 480 560 l 1,5,-1
 480 320 l 1,6,-1
 720 320 l 1,7,-1
 720 240 l 1,8,-1
 400 240 l 1,9,-1
 400 560 l 1,4,-1
240 560 m 1,10,-1
 320 560 l 1,11,-1
 320 240 l 1,12,-1
 0 240 l 1,13,-1
 0 320 l 1,14,-1
 240 320 l 1,15,-1
 240 560 l 1,10,-1
EndSplineSet
EndChar

StartChar: SF440000
Encoding: 91 9580 91
Width: 720
GlyphClass: 2
Flags: W
LayerCount: 2
Fore
SplineSet
400 160 m 1,0,-1
 720 160 l 1,1,-1
 720 80 l 1,2,-1
 480 80 l 1,3,-1
 480 -160 l 1,4,-1
 400 -160 l 1,5,-1
 400 160 l 1,0,-1
0 160 m 1,6,-1
 320 160 l 1,7,-1
 320 -160 l 1,8,-1
 240 -160 l 1,9,-1
 240 80 l 1,10,-1
 0 80 l 1,11,-1
 0 160 l 1,6,-1
400 560 m 1,12,-1
 480 560 l 1,13,-1
 480 320 l 1,14,-1
 720 320 l 1,15,-1
 720 240 l 1,16,-1
 400 240 l 1,17,-1
 400 560 l 1,12,-1
240 560 m 1,18,-1
 320 560 l 1,19,-1
 320 240 l 1,20,-1
 0 240 l 1,21,-1
 0 320 l 1,22,-1
 240 320 l 1,23,-1
 240 560 l 1,18,-1
EndSplineSet
EndChar

StartChar: uni2571
Encoding: 92 9585 92
Width: 720
GlyphClass: 2
Flags: W
LayerCount: 2
Fore
SplineSet
692 588 m 1,0,-1
 748 532 l 1,1,-1
 28 -188 l 1,2,-1
 -28 -132 l 1,3,-1
 692 588 l 1,0,-1
EndSplineSet
EndChar

StartChar: uni2572
Encoding: 93 9586 93
Width: 720
GlyphClass: 2
Flags: W
LayerCount: 2
Fore
SplineSet
-28 532 m 1,0,-1
 28 588 l 1,1,-1
 748 -132 l 1,2,-1
 692 -188 l 1,3,-1
 -28 532 l 1,0,-1
EndSplineSet
EndChar

StartChar: uni2573
Encoding: 94 9587 94
Width: 720
GlyphClass: 2
Flags: W
LayerCount: 2
Fore
SplineSet
-28 532 m 1,0,-1
 28 588 l 1,1,-1
 360 257 l 1,2,-1
 692 588 l 1,3,-1
 748 532 l 1,4,-1
 417 200 l 1,5,-1
 748 -132 l 1,6,-1
 692 -188 l 1,7,-1
 360 143 l 1,8,-1
 28 -188 l 1,9,-1
 -28 -132 l 1,10,-1
 303 200 l 1,11,-1
 -28 532 l 1,0,-1
EndSplineSet
EndChar

StartChar: uni2574
Encoding: 95 9588 95
Width: 720
GlyphClass: 2
Flags: W
LayerCount: 2
Fore
SplineSet
0 240 m 1,0,-1
 360 240 l 1,1,-1
 360 160 l 1,2,-1
 0 160 l 1,3,-1
 0 240 l 1,0,-1
EndSplineSet
EndChar

StartChar: uni2575
Encoding: 96 9589 96
Width: 720
GlyphClass: 2
Flags: W
LayerCount: 2
Fore
SplineSet
320 560 m 1,0,-1
 400 560 l 1,1,-1
 400 200 l 1,2,-1
 320 200 l 1,3,-1
 320 560 l 1,0,-1
EndSplineSet
EndChar

StartChar: uni2576
Encoding: 97 9590 97
Width: 720
GlyphClass: 2
Flags: W
LayerCount: 2
Fore
SplineSet
360 240 m 1,0,-1
 720 240 l 1,1,-1
 720 160 l 1,2,-1
 360 160 l 1,3,-1
 360 240 l 1,0,-1
EndSplineSet
EndChar

StartChar: uni2577
Encoding: 98 9591 98
Width: 720
GlyphClass: 2
Flags: W
LayerCount: 2
Fore
SplineSet
320 200 m 1,0,-1
 400 200 l 1,1,-1
 400 -160 l 1,2,-1
 320 -160 l 1,3,-1
 320 200 l 1,0,-1
EndSplineSet
EndChar

StartChar: uni2578
Encoding: 99 9592 99
Width: 720
GlyphClass: 2
Flags: W
LayerCount: 2
Fore
SplineSet
0 320 m 1,0,-1
 360 320 l 1,1,-1
 360 80 l 1,2,-1
 0 80 l 1,3,-1
 0 320 l 1,0,-1
EndSplineSet
EndChar

StartChar: uni2579
Encoding: 100 9593 100
Width: 720
GlyphClass: 2
Flags: W
LayerCount: 2
Fore
SplineSet
240 560 m 1,0,-1
 480 560 l 1,1,-1
 480 200 l 1,2,-1
 240 200 l 1,3,-1
 240 560 l 1,0,-1
EndSplineSet
EndChar

StartChar: uni257A
Encoding: 101 9594 101
Width: 720
GlyphClass: 2
Flags: W
LayerCount: 2
Fore
SplineSet
360 320 m 1,0,-1
 720 320 l 1,1,-1
 720 80 l 1,2,-1
 360 80 l 1,3,-1
 360 320 l 1,0,-1
EndSplineSet
EndChar

StartChar: uni257B
Encoding: 102 9595 102
Width: 720
GlyphClass: 2
Flags: W
LayerCount: 2
Fore
SplineSet
240 200 m 1,0,-1
 480 200 l 1,1,-1
 480 -160 l 1,2,-1
 240 -160 l 1,3,-1
 240 200 l 1,0,-1
EndSplineSet
EndChar

StartChar: uni257C
Encoding: 103 9596 103
Width: 720
GlyphClass: 2
Flags: W
LayerCount: 2
Fore
SplineSet
360 320 m 1,0,-1
 720 320 l 1,1,-1
 720 80 l 1,2,-1
 360 80 l 1,3,-1
 360 160 l 1,4,-1
 0 160 l 1,5,-1
 0 240 l 1,6,-1
 360 240 l 1,7,-1
 360 320 l 1,0,-1
EndSplineSet
EndChar

StartChar: uni257D
Encoding: 104 9597 104
Width: 720
GlyphClass: 2
Flags: W
LayerCount: 2
Fore
SplineSet
320 560 m 1,0,-1
 400 560 l 1,1,-1
 400 200 l 1,2,-1
 480 200 l 1,3,-1
 480 -160 l 1,4,-1
 240 -160 l 1,5,-1
 240 200 l 1,6,-1
 320 200 l 1,7,-1
 320 560 l 1,0,-1
EndSplineSet
EndChar

StartChar: uni257E
Encoding: 105 9598 105
Width: 720
GlyphClass: 2
Flags: W
LayerCount: 2
Fore
SplineSet
0 320 m 1,0,-1
 360 320 l 1,1,-1
 360 240 l 1,2,-1
 720 240 l 1,3,-1
 720 160 l 1,4,-1
 360 160 l 1,5,-1
 360 80 l 1,6,-1
 0 80 l 1,7,-1
 0 320 l 1,0,-1
EndSplineSet
EndChar

StartChar: uni257F
Encoding: 106 9599 106
Width: 720
GlyphClass: 2
Flags: W
LayerCount: 2
Fore
SplineSet
240 560 m 1,0,-1
 480 560 l 1,1,-1
 480 200 l 1,2,-1
 400 200 l 1,3,-1
 400 -160 l 1,4,-1
 320 -160 l 1,5,-1
 320 200 l 1,6,-1
 240 200 l 1,7,-1
 240 560 l 1,0,-1
EndSplineSet
EndChar

StartChar: u1CC21
Encoding: 107 117793 107
Width: 720
GlyphClass: 2
Flags: W
LayerCount: 2
Fore
SplineSet
40 240 m 1,0,-1
 40 520 l 1,1,-1
 320 520 l 1,2,-1
 320 240 l 1,3,-1
 40 240 l 1,0,-1
EndSplineSet
EndChar

StartChar: u1CC22
Encoding: 108 117794 108
Width: 720
GlyphClass: 2
Flags: W
LayerCount: 2
Fore
SplineSet
400 240 m 1,0,-1
 400 520 l 1,1,-1
 680 520 l 1,2,-1
 680 240 l 1,3,-1
 400 240 l 1,0,-1
EndSplineSet
EndChar

StartChar: u1CC23
Encoding: 109 117795 109
Width: 720
GlyphClass: 2
Flags: W
LayerCount: 2
Fore
SplineSet
40 240 m 1,0,-1
 40 520 l 1,1,-1
 320 520 l 1,2,-1
 320 240 l 1,3,-1
 40 240 l 1,0,-1
400 240 m 1,4,-1
 400 520 l 1,5,-1
 680 520 l 1,6,-1
 680 240 l 1,7,-1
 400 240 l 1,4,-1
EndSplineSet
EndChar

StartChar: u1CC24
Encoding: 110 117796 110
Width: 720
GlyphClass: 2
Flags: W
LayerCount: 2
Fore
SplineSet
40 -120 m 1,0,-1
 40 160 l 1,1,-1
 320 160 l 1,2,-1
 320 -120 l 1,3,-1
 40 -120 l 1,0,-1
EndSplineSet
EndChar

StartChar: u1CC25
Encoding: 111 117797 111
Width: 720
GlyphClass: 2
Flags: W
LayerCount: 2
Fore
SplineSet
40 240 m 1,0,-1
 40 520 l 1,1,-1
 320 520 l 1,2,-1
 320 240 l 1,3,-1
 40 240 l 1,0,-1
40 -120 m 1,4,-1
 40 160 l 1,5,-1
 320 160 l 1,6,-1
 320 -120 l 1,7,-1
 40 -120 l 1,4,-1
EndSplineSet
EndChar

StartChar: u1CC26
Encoding: 112 117798 112
Width: 720
GlyphClass: 2
Flags: W
LayerCount: 2
Fore
SplineSet
400 240 m 1,0,-1
 400 520 l 1,1,-1
 680 520 l 1,2,-1
 680 240 l 1,3,-1
 400 240 l 1,0,-1
40 -120 m 1,4,-1
 40 160 l 1,5,-1
 320 160 l 1,6,-1
 320 -120 l 1,7,-1
 40 -120 l 1,4,-1
EndSplineSet
EndChar

StartChar: u1CC27
Encoding: 113 117799 113
Width: 720
GlyphClass: 2
Flags: W
LayerCount: 2
Fore
SplineSet
40 240 m 1,0,-1
 40 520 l 1,1,-1
 320 520 l 1,2,-1
 320 240 l 1,3,-1
 40 240 l 1,0,-1
400 240 m 1,4,-1
 400 520 l 1,5,-1
 680 520 l 1,6,-1
 680 240 l 1,7,-1
 400 240 l 1,4,-1
40 -120 m 1,8,-1
 40 160 l 1,9,-1
 320 160 l 1,10,-1
 320 -120 l 1,11,-1
 40 -120 l 1,8,-1
EndSplineSet
EndChar

StartChar: u1CC28
Encoding: 114 117800 114
Width: 720
GlyphClass: 2
Flags: W
LayerCount: 2
Fore
SplineSet
400 -120 m 1,0,-1
 400 160 l 1,1,-1
 680 160 l 1,2,-1
 680 -120 l 1,3,-1
 400 -120 l 1,0,-1
EndSplineSet
EndChar

StartChar: u1CC29
Encoding: 115 117801 115
Width: 720
GlyphClass: 2
Flags: W
LayerCount: 2
Fore
SplineSet
40 240 m 1,0,-1
 40 520 l 1,1,-1
 320 520 l 1,2,-1
 320 240 l 1,3,-1
 40 240 l 1,0,-1
400 -120 m 1,4,-1
 400 160 l 1,5,-1
 680 160 l 1,6,-1
 680 -120 l 1,7,-1
 400 -120 l 1,4,-1
EndSplineSet
EndChar

StartChar: u1CC2A
Encoding: 116 117802 116
Width: 720
GlyphClass: 2
Flags: W
LayerCount: 2
Fore
SplineSet
400 240 m 1,0,-1
 400 520 l 1,1,-1
 680 520 l 1,2,-1
 680 240 l 1,3,-1
 400 240 l 1,0,-1
400 -120 m 1,4,-1
 400 160 l 1,5,-1
 680 160 l 1,6,-1
 680 -120 l 1,7,-1
 400 -120 l 1,4,-1
EndSplineSet
EndChar

StartChar: u1CC2B
Encoding: 117 117803 117
Width: 720
GlyphClass: 2
Flags: W
LayerCount: 2
Fore
SplineSet
40 240 m 1,0,-1
 40 520 l 1,1,-1
 320 520 l 1,2,-1
 320 240 l 1,3,-1
 40 240 l 1,0,-1
400 240 m 1,4,-1
 400 520 l 1,5,-1
 680 520 l 1,6,-1
 680 240 l 1,7,-1
 400 240 l 1,4,-1
400 -120 m 1,8,-1
 400 160 l 1,9,-1
 680 160 l 1,10,-1
 680 -120 l 1,11,-1
 400 -120 l 1,8,-1
EndSplineSet
EndChar

StartChar: u1CC2C
Encoding: 118 117804 118
Width: 720
GlyphClass: 2
Flags: W
LayerCount: 2
Fore
SplineSet
400 -120 m 1,0,-1
 400 160 l 1,1,-1
 680 160 l 1,2,-1
 680 -120 l 1,3,-1
 400 -120 l 1,0,-1
40 -120 m 1,4,-1
 40 160 l 1,5,-1
 320 160 l 1,6,-1
 320 -120 l 1,7,-1
 40 -120 l 1,4,-1
EndSplineSet
EndChar

StartChar: u1CC2D
Encoding: 119 117805 119
Width: 720
GlyphClass: 2
Flags: W
LayerCount: 2
Fore
SplineSet
40 240 m 1,0,-1
 40 520 l 1,1,-1
 320 520 l 1,2,-1
 320 240 l 1,3,-1
 40 240 l 1,0,-1
400 -120 m 1,4,-1
 400 160 l 1,5,-1
 680 160 l 1,6,-1
 680 -120 l 1,7,-1
 400 -120 l 1,4,-1
40 -120 m 1,8,-1
 40 160 l 1,9,-1
 320 160 l 1,10,-1
 320 -120 l 1,11,-1
 40 -120 l 1,8,-1
EndSplineSet
EndChar

StartChar: u1CC2E
Encoding: 120 117806 120
Width: 720
GlyphClass: 2
Flags: W
LayerCount: 2
Fore
SplineSet
400 240 m 1,0,-1
 400 520 l 1,1,-1
 680 520 l 1,2,-1
 680 240 l 1,3,-1
 400 240 l 1,0,-1
400 -120 m 1,4,-1
 400 160 l 1,5,-1
 680 160 l 1,6,-1
 680 -120 l 1,7,-1
 400 -120 l 1,4,-1
40 -120 m 1,8,-1
 40 160 l 1,9,-1
 320 160 l 1,10,-1
 320 -120 l 1,11,-1
 40 -120 l 1,8,-1
EndSplineSet
EndChar

StartChar: u1CC2F
Encoding: 121 117807 121
Width: 720
GlyphClass: 2
Flags: W
LayerCount: 2
Fore
SplineSet
40 240 m 1,0,-1
 40 520 l 1,1,-1
 320 520 l 1,2,-1
 320 240 l 1,3,-1
 40 240 l 1,0,-1
400 240 m 1,4,-1
 400 520 l 1,5,-1
 680 520 l 1,6,-1
 680 240 l 1,7,-1
 400 240 l 1,4,-1
400 -120 m 1,8,-1
 400 160 l 1,9,-1
 680 160 l 1,10,-1
 680 -120 l 1,11,-1
 400 -120 l 1,8,-1
40 -120 m 1,12,-1
 40 160 l 1,13,-1
 320 160 l 1,14,-1
 320 -120 l 1,15,-1
 40 -120 l 1,12,-1
EndSplineSet
EndChar

StartChar: u1CC31
Encoding: 122 117809 122
Width: 720
GlyphClass: 2
Flags: W
LayerCount: 2
Fore
SplineSet
720 470 m 1,0,1
 329 470 329 470 0 262 c 1,2,-1
 0 367 l 1,3,4
 333 560 333 560 720 560 c 1,5,-1
 720 470 l 1,0,1
EndSplineSet
EndChar

StartChar: u1CC32
Encoding: 123 117810 123
Width: 720
GlyphClass: 2
Flags: W
LayerCount: 2
Fore
SplineSet
720 262 m 1,0,1
 391 470 391 470 0 470 c 1,2,-1
 0 560 l 1,3,4
 387 560 387 560 720 367 c 1,5,-1
 720 262 l 1,0,1
EndSplineSet
EndChar

StartChar: u1CC34
Encoding: 124 117812 124
Width: 720
GlyphClass: 2
Flags: W
LayerCount: 2
Fore
SplineSet
298 560 m 1,0,1
 90 231 90 231 90 -160 c 1,2,-1
 0 -160 l 1,3,4
 0 227 0 227 193 560 c 1,5,-1
 298 560 l 1,0,1
EndSplineSet
EndChar

StartChar: u1CC37
Encoding: 125 117815 125
Width: 720
GlyphClass: 2
Flags: W
LayerCount: 2
Fore
SplineSet
422 560 m 1,0,-1
 527 560 l 1,1,2
 720 227 720 227 720 -160 c 1,3,-1
 630 -160 l 1,4,5
 630 231 630 231 422 560 c 1,0,-1
EndSplineSet
EndChar

StartChar: u1CC38
Encoding: 126 117816 126
Width: 720
GlyphClass: 2
Flags: W
LayerCount: 2
Fore
SplineSet
298 -160 m 1,0,-1
 193 -160 l 1,1,2
 0 173 0 173 0 560 c 1,3,-1
 90 560 l 1,4,5
 90 169 90 169 298 -160 c 1,0,-1
EndSplineSet
EndChar

StartChar: u1CC3B
Encoding: 127 117819 127
Width: 720
GlyphClass: 2
Flags: W
LayerCount: 2
Fore
SplineSet
630 560 m 1,0,-1
 720 560 l 1,1,2
 720 173 720 173 527 -160 c 1,3,-1
 422 -160 l 1,4,5
 630 169 630 169 630 560 c 1,0,-1
EndSplineSet
EndChar

StartChar: u1CC3D
Encoding: 128 117821 128
Width: 720
GlyphClass: 2
Flags: W
LayerCount: 2
Fore
SplineSet
720 -70 m 1,0,-1
 720 -160 l 1,1,2
 333 -160 333 -160 0 33 c 1,3,-1
 0 138 l 1,4,5
 329 -70 329 -70 720 -70 c 1,0,-1
EndSplineSet
EndChar

StartChar: u1CC3E
Encoding: 129 117822 129
Width: 720
GlyphClass: 2
Flags: W
LayerCount: 2
Fore
SplineSet
720 138 m 1,0,-1
 720 33 l 1,1,2
 387 -160 387 -160 0 -160 c 1,3,-1
 0 -70 l 1,4,5
 391 -70 391 -70 720 138 c 1,0,-1
EndSplineSet
EndChar

StartChar: u1CC40
Encoding: 130 117824 130
Width: 720
GlyphClass: 2
Flags: W
LayerCount: 2
Fore
SplineSet
0 335 m 1,0,-1
 0 425 l 1,1,-1
 720 425 l 1,2,-1
 720 335 l 1,3,-1
 0 335 l 1,0,-1
0 -25 m 1,4,-1
 0 65 l 1,5,-1
 720 65 l 1,6,-1
 720 -25 l 1,7,-1
 0 -25 l 1,4,-1
EndSplineSet
EndChar

StartChar: u1CC41
Encoding: 131 117825 131
Width: 720
GlyphClass: 2
Flags: W
LayerCount: 2
Fore
SplineSet
495 -160 m 1,0,-1
 495 560 l 1,1,-1
 585 560 l 1,2,-1
 585 -160 l 1,3,-1
 495 -160 l 1,0,-1
135 -160 m 1,4,-1
 135 560 l 1,5,-1
 225 560 l 1,6,-1
 225 -160 l 1,7,-1
 135 -160 l 1,4,-1
EndSplineSet
EndChar

StartChar: u1CC42
Encoding: 132 117826 132
Width: 720
GlyphClass: 2
Flags: W
LayerCount: 2
Fore
SplineSet
0 -25 m 1,0,-1
 0 65 l 1,1,-1
 135 65 l 1,2,-1
 135 335 l 1,3,-1
 0 335 l 1,4,-1
 0 425 l 1,5,-1
 135 425 l 1,6,-1
 135 560 l 1,7,-1
 225 560 l 1,8,-1
 225 425 l 1,9,-1
 495 425 l 1,10,-1
 495 560 l 1,11,-1
 585 560 l 1,12,-1
 585 425 l 1,13,-1
 720 425 l 1,14,-1
 720 335 l 1,15,-1
 585 335 l 1,16,-1
 585 65 l 1,17,-1
 720 65 l 1,18,-1
 720 -25 l 1,19,-1
 585 -25 l 1,20,-1
 585 -160 l 1,21,-1
 495 -160 l 1,22,-1
 495 -25 l 1,23,-1
 225 -25 l 1,24,-1
 225 -160 l 1,25,-1
 135 -160 l 1,26,-1
 135 -25 l 1,27,-1
 0 -25 l 1,0,-1
495 65 m 1,28,-1
 495 335 l 1,29,-1
 225 335 l 1,30,-1
 225 65 l 1,31,-1
 495 65 l 1,28,-1
EndSplineSet
EndChar

StartChar: uniE000
Encoding: 133 57344 133
Width: 720
LayerCount: 2
Fore
SplineSet
0 320 m 1,0,1
 99 320 99 320 169.5 390.5 c 128,-1,2
 240 461 240 461 240 560 c 1,3,-1
 480 560 l 1,4,5
 480 430 480 430 415.5 319.5 c 128,-1,6
 351 209 351 209 240.5 144.5 c 128,-1,7
 130 80 130 80 0 80 c 1,8,-1
 0 320 l 1,0,1
320 -160 m 1,9,10
 320 6 320 6 437 123 c 128,-1,11
 554 240 554 240 720 240 c 1,12,-1
 720 160 l 1,13,14
 588 160 588 160 494 66 c 128,-1,15
 400 -28 400 -28 400 -160 c 1,16,-1
 320 -160 l 1,9,10
EndSplineSet
EndChar

StartChar: uniE001
Encoding: 134 57345 134
Width: 720
Flags: W
LayerCount: 2
Fore
SplineSet
480 560 m 1,0,1
 480 461 480 461 550.5 390.5 c 128,-1,2
 621 320 621 320 720 320 c 1,3,-1
 720 80 l 1,4,5
 590 80 590 80 479.5 144.5 c 128,-1,6
 369 209 369 209 304.5 319.5 c 128,-1,7
 240 430 240 430 240 560 c 1,8,-1
 480 560 l 1,0,1
0 240 m 1,9,10
 166 240 166 240 283 123 c 128,-1,11
 400 6 400 6 400 -160 c 1,12,-1
 320 -160 l 1,13,14
 320 -28 320 -28 226 66 c 128,-1,15
 132 160 132 160 0 160 c 1,16,-1
 0 240 l 1,9,10
EndSplineSet
EndChar

StartChar: uniE002
Encoding: 135 57346 135
Width: 720
Flags: W
LayerCount: 2
Fore
SplineSet
240 -160 m 1,0,1
 240 -61 240 -61 169.5 9.5 c 128,-1,2
 99 80 99 80 0 80 c 1,3,-1
 0 320 l 1,4,5
 130 320 130 320 240.5 255.5 c 128,-1,6
 351 191 351 191 415.5 80.5 c 128,-1,7
 480 -30 480 -30 480 -160 c 1,8,-1
 240 -160 l 1,0,1
720 160 m 1,9,10
 554 160 554 160 437 277 c 128,-1,11
 320 394 320 394 320 560 c 1,12,-1
 400 560 l 1,13,14
 400 428 400 428 494 334 c 128,-1,15
 588 240 588 240 720 240 c 1,16,-1
 720 160 l 1,9,10
EndSplineSet
EndChar

StartChar: uniE003
Encoding: 136 57347 136
Width: 720
Flags: W
LayerCount: 2
Fore
SplineSet
720 80 m 1,0,1
 621 80 621 80 550.5 9.5 c 128,-1,2
 480 -61 480 -61 480 -160 c 1,3,-1
 240 -160 l 1,4,5
 240 -30 240 -30 304.5 80.5 c 128,-1,6
 369 191 369 191 479.5 255.5 c 128,-1,7
 590 320 590 320 720 320 c 1,8,-1
 720 80 l 1,0,1
400 560 m 1,9,10
 400 394 400 394 283 277 c 128,-1,11
 166 160 166 160 0 160 c 1,12,-1
 0 240 l 1,13,14
 132 240 132 240 226 334 c 128,-1,15
 320 428 320 428 320 560 c 1,16,-1
 400 560 l 1,9,10
EndSplineSet
EndChar
